<svg id="visual" viewBox="0 0 900 600" width="900" height="600" xmlns="http://www.w3.org/2000/svg" xmlns:xlink="http://www.w3.org/1999/xlink" version="1.1"><rect x="0" y="0" width="900" height="600" fill="#ffffff"></rect><defs><linearGradient id="grad1_0" x1="33.3%" y1="0%" x2="100%" y2="100%"><stop offset="20%" stop-color="#fd4d4d" stop-opacity="1"></stop><stop offset="80%" stop-color="#fd4d4d" stop-opacity="1"></stop></linearGradient></defs><defs><linearGradient id="grad1_1" x1="33.3%" y1="0%" x2="100%" y2="100%"><stop offset="20%" stop-color="#fd4d4d" stop-opacity="1"></stop><stop offset="80%" stop-color="#ff6c64" stop-opacity="1"></stop></linearGradient></defs><defs><linearGradient id="grad1_2" x1="33.3%" y1="0%" x2="100%" y2="100%"><stop offset="20%" stop-color="#ff877c" stop-opacity="1"></stop><stop offset="80%" stop-color="#ff6c64" stop-opacity="1"></stop></linearGradient></defs><defs><linearGradient id="grad1_3" x1="33.3%" y1="0%" x2="100%" y2="100%"><stop offset="20%" stop-color="#ff877c" stop-opacity="1"></stop><stop offset="80%" stop-color="#ffa095" stop-opacity="1"></stop></linearGradient></defs><defs><linearGradient id="grad1_4" x1="33.3%" y1="0%" x2="100%" y2="100%"><stop offset="20%" stop-color="#ffb8af" stop-opacity="1"></stop><stop offset="80%" stop-color="#ffa095" stop-opacity="1"></stop></linearGradient></defs><defs><linearGradient id="grad1_5" x1="33.3%" y1="0%" x2="100%" y2="100%"><stop offset="20%" stop-color="#ffb8af" stop-opacity="1"></stop><stop offset="80%" stop-color="#ffd0c9" stop-opacity="1"></stop></linearGradient></defs><defs><linearGradient id="grad1_6" x1="33.3%" y1="0%" x2="100%" y2="100%"><stop offset="20%" stop-color="#ffe8e4" stop-opacity="1"></stop><stop offset="80%" stop-color="#ffd0c9" stop-opacity="1"></stop></linearGradient></defs><defs><linearGradient id="grad1_7" x1="33.3%" y1="0%" x2="100%" y2="100%"><stop offset="20%" stop-color="#ffe8e4" stop-opacity="1"></stop><stop offset="80%" stop-color="#ffffff" stop-opacity="1"></stop></linearGradient></defs><defs><linearGradient id="grad2_0" x1="0%" y1="0%" x2="66.7%" y2="100%"><stop offset="20%" stop-color="#fd4d4d" stop-opacity="1"></stop><stop offset="80%" stop-color="#fd4d4d" stop-opacity="1"></stop></linearGradient></defs><defs><linearGradient id="grad2_1" x1="0%" y1="0%" x2="66.7%" y2="100%"><stop offset="20%" stop-color="#ff6c64" stop-opacity="1"></stop><stop offset="80%" stop-color="#fd4d4d" stop-opacity="1"></stop></linearGradient></defs><defs><linearGradient id="grad2_2" x1="0%" y1="0%" x2="66.7%" y2="100%"><stop offset="20%" stop-color="#ff6c64" stop-opacity="1"></stop><stop offset="80%" stop-color="#ff877c" stop-opacity="1"></stop></linearGradient></defs><defs><linearGradient id="grad2_3" x1="0%" y1="0%" x2="66.7%" y2="100%"><stop offset="20%" stop-color="#ffa095" stop-opacity="1"></stop><stop offset="80%" stop-color="#ff877c" stop-opacity="1"></stop></linearGradient></defs><defs><linearGradient id="grad2_4" x1="0%" y1="0%" x2="66.7%" y2="100%"><stop offset="20%" stop-color="#ffa095" stop-opacity="1"></stop><stop offset="80%" stop-color="#ffb8af" stop-opacity="1"></stop></linearGradient></defs><defs><linearGradient id="grad2_5" x1="0%" y1="0%" x2="66.7%" y2="100%"><stop offset="20%" stop-color="#ffd0c9" stop-opacity="1"></stop><stop offset="80%" stop-color="#ffb8af" stop-opacity="1"></stop></linearGradient></defs><defs><linearGradient id="grad2_6" x1="0%" y1="0%" x2="66.7%" y2="100%"><stop offset="20%" stop-color="#ffd0c9" stop-opacity="1"></stop><stop offset="80%" stop-color="#ffe8e4" stop-opacity="1"></stop></linearGradient></defs><defs><linearGradient id="grad2_7" x1="0%" y1="0%" x2="66.7%" y2="100%"><stop offset="20%" stop-color="#ffffff" stop-opacity="1"></stop><stop offset="80%" stop-color="#ffe8e4" stop-opacity="1"></stop></linearGradient></defs><g transform="translate(900, 0)"><path d="M0 486.7C-44.3 435.4 -88.6 384 -152.7 368.6C-216.7 353.2 -300.5 373.8 -344.2 344.2C-387.8 314.6 -391.3 234.9 -408.4 169.1C-425.4 103.4 -456.1 51.7 -486.7 0L0 0Z" fill="#fff3f1"></path><path d="M0 425.9C-38.8 381 -77.6 336 -133.6 322.5C-189.7 309.1 -263 327.1 -301.2 301.2C-339.3 275.3 -342.4 205.5 -357.3 148C-372.2 90.5 -399.1 45.2 -425.9 0L0 0Z" fill="#ffdcd6"></path><path d="M0 365.1C-33.2 326.5 -66.5 288 -114.5 276.5C-162.6 264.9 -225.4 280.3 -258.1 258.1C-290.9 235.9 -293.5 176.1 -306.3 126.9C-319.1 77.6 -342.1 38.8 -365.1 0L0 0Z" fill="#ffc4bc"></path><path d="M0 304.2C-27.7 272.1 -55.4 240 -95.4 230.4C-135.5 220.8 -187.8 233.6 -215.1 215.1C-242.4 196.6 -244.6 146.8 -255.2 105.7C-265.9 64.6 -285.1 32.3 -304.2 0L0 0Z" fill="#ffaca2"></path><path d="M0 243.4C-22.2 217.7 -44.3 192 -76.3 184.3C-108.4 176.6 -150.3 186.9 -172.1 172.1C-193.9 157.3 -195.6 117.4 -204.2 84.6C-212.7 51.7 -228 25.9 -243.4 0L0 0Z" fill="#ff9489"></path><path d="M0 182.5C-16.6 163.3 -33.2 144 -57.3 138.2C-81.3 132.5 -112.7 140.2 -129.1 129.1C-145.4 118 -146.7 88.1 -153.1 63.4C-159.5 38.8 -171 19.4 -182.5 0L0 0Z" fill="#ff7a70"></path><path d="M0 121.7C-11.1 108.8 -22.2 96 -38.2 92.2C-54.2 88.3 -75.1 93.4 -86 86C-97 78.6 -97.8 58.7 -102.1 42.3C-106.4 25.9 -114 12.9 -121.7 0L0 0Z" fill="#ff5d59"></path><path d="M0 60.8C-5.5 54.4 -11.1 48 -19.1 46.1C-27.1 44.2 -37.6 46.7 -43 43C-48.5 39.3 -48.9 29.4 -51 21.1C-53.2 12.9 -57 6.5 -60.8 0L0 0Z" fill="#fd4d4d"></path></g><g transform="translate(0, 600)"><path d="M0 -486.7C55.9 -461.1 111.9 -435.5 172.2 -415.7C232.6 -396 297.3 -382.2 344.2 -344.2C391 -306.2 419.9 -243.9 440.7 -182.5C461.5 -121.1 474.1 -60.6 486.7 0L0 0Z" fill="#fff3f1"></path><path d="M0 -425.9C48.9 -403.5 97.9 -381 150.7 -363.8C203.5 -346.5 260.2 -334.4 301.2 -301.2C342.1 -267.9 367.4 -213.4 385.6 -159.7C403.8 -106 414.8 -53 425.9 0L0 0Z" fill="#ffdcd6"></path><path d="M0 -365.1C41.9 -345.8 83.9 -326.6 129.2 -311.8C174.4 -297 223 -286.7 258.1 -258.1C293.3 -229.6 314.9 -183 330.5 -136.9C346.1 -90.9 355.6 -45.4 365.1 0L0 0Z" fill="#ffc4bc"></path><path d="M0 -304.2C35 -288.2 69.9 -272.2 107.6 -259.8C145.4 -247.5 185.8 -238.9 215.1 -215.1C244.4 -191.4 262.5 -152.5 275.4 -114.1C288.4 -75.7 296.3 -37.9 304.2 0L0 0Z" fill="#ffaca2"></path><path d="M0 -243.4C28 -230.6 55.9 -217.7 86.1 -207.9C116.3 -198 148.7 -191.1 172.1 -172.1C195.5 -153.1 210 -122 220.3 -91.3C230.7 -60.6 237.1 -30.3 243.4 0L0 0Z" fill="#ff9489"></path><path d="M0 -182.5C21 -172.9 41.9 -163.3 64.6 -155.9C87.2 -148.5 111.5 -143.3 129.1 -129.1C146.6 -114.8 157.5 -91.5 165.3 -68.5C173 -45.4 177.8 -22.7 182.5 0L0 0Z" fill="#ff7a70"></path><path d="M0 -121.7C14 -115.3 28 -108.9 43.1 -103.9C58.1 -99 74.3 -95.6 86 -86C97.8 -76.5 105 -61 110.2 -45.6C115.4 -30.3 118.5 -15.1 121.7 0L0 0Z" fill="#ff5d59"></path><path d="M0 -60.8C7 -57.6 14 -54.4 21.5 -52C29.1 -49.5 37.2 -47.8 43 -43C48.9 -38.3 52.5 -30.5 55.1 -22.8C57.7 -15.1 59.3 -7.6 60.8 0L0 0Z" fill="#fd4d4d"></path></g></svg>